<?xml version="1.0" standalone="no"?>
<!DOCTYPE svg PUBLIC "-//W3C//DTD SVG 20010904//EN"
 "http://www.w3.org/TR/2001/REC-SVG-20010904/DTD/svg10.dtd">
<svg version="1.0" xmlns="http://www.w3.org/2000/svg"
 width="640.000000pt" height="640.000000pt" viewBox="0 0 640.000000 640.000000"
 preserveAspectRatio="xMidYMid meet">
<metadata>
Created by potrace 1.11, written by Peter Selinger 2001-2013
</metadata>
<g transform="translate(0.000000,640.000000) scale(0.100000,-0.100000)"
fill="#000000" stroke="none">
<path d="M1400 5480 c0 -6 7 -13 15 -16 8 -3 17 -15 21 -26 8 -25 63 -88 77
-88 6 0 -2 13 -18 30 -16 16 -26 32 -23 35 3 3 18 -9 33 -27 25 -30 39 -41 99
-80 11 -7 31 -23 45 -35 14 -13 33 -23 43 -23 9 0 28 -11 42 -24 l26 -23 -75
-94 c-41 -51 -93 -129 -115 -174 -44 -89 -54 -127 -14 -55 l25 45 -7 -35 c-4
-19 -18 -59 -31 -89 -24 -52 -50 -177 -40 -188 3 -3 8 12 12 33 3 22 10 46 16
54 5 8 16 31 25 50 9 19 28 49 43 65 30 32 46 65 32 65 -5 0 -14 -7 -21 -15
-7 -8 -17 -15 -22 -15 -12 0 9 21 44 44 15 10 36 37 48 61 19 39 60 88 60 71
0 -4 7 -1 15 8 17 17 20 30 5 21 -5 -3 -10 -3 -10 2 0 11 20 40 20 30 0 -13
51 45 67 78 9 17 24 41 34 54 29 36 23 2 -7 -42 -19 -29 -23 -41 -15 -51 8
-10 7 -21 -5 -42 l-15 -29 7 34 c6 31 5 33 -8 20 -21 -20 -27 -63 -12 -83 9
-14 8 -24 -7 -55 -24 -50 -36 -121 -20 -121 14 0 14 -63 0 -77 -25 -25 -18
-206 7 -196 8 3 21 0 28 -6 11 -10 19 -7 34 10 21 21 47 18 38 -6 -7 -20 43
-26 54 -6 4 9 12 12 17 8 4 -5 0 -22 -9 -38 -14 -24 -15 -29 -3 -29 8 0 15 9
15 20 0 11 7 23 15 26 8 4 15 16 15 28 0 12 6 31 14 42 8 11 17 37 21 57 4 20
11 37 16 37 5 0 9 18 9 39 0 51 12 58 46 26 15 -14 31 -25 36 -25 5 0 8 -7 6
-16 -2 -9 6 -20 19 -25 41 -15 41 37 2 288 -21 137 -24 193 -9 193 6 0 10 7
10 15 0 16 35 21 44 6 3 -5 18 -12 32 -15 29 -8 147 -84 153 -99 9 -23 60 -71
67 -64 5 4 2 13 -6 18 -13 9 -13 10 0 6 8 -2 15 -13 16 -25 1 -11 16 -33 35
-48 19 -16 55 -50 82 -76 40 -41 47 -54 47 -87 0 -51 8 -71 30 -71 34 0 39 40
14 108 -29 76 -30 91 -4 67 15 -14 20 -15 21 -4 0 8 5 3 10 -11 8 -19 12 -22
19 -10 7 11 14 11 32 3 30 -13 78 -9 89 9 9 14 12 68 4 68 -3 0 -14 -5 -25
-12 -24 -15 -37 -4 -20 17 7 8 10 25 7 37 -4 12 -1 28 4 35 16 18 2 32 -24 25
-21 -5 -21 -5 -4 12 19 20 22 32 7 41 -5 3 -10 11 -10 17 0 7 14 -1 30 -17 17
-16 30 -33 30 -38 0 -4 12 -24 26 -43 24 -31 25 -36 11 -52 -13 -15 -13 -19
-1 -30 12 -11 13 -9 11 10 -1 15 3 23 13 23 8 0 14 -8 14 -17 -1 -10 4 -14 11
-11 15 5 37 -28 32 -49 -2 -7 -2 -10 0 -5 10 16 21 5 48 -45 42 -82 80 -195
88 -263 1 -11 10 -21 20 -23 24 -5 23 57 -2 130 -29 84 -114 236 -166 297 -25
29 -67 81 -92 115 -52 68 -50 66 -148 119 -103 57 -227 97 -314 102 -41 3 -83
7 -95 11 -16 5 -18 3 -10 -6 7 -6 41 -15 76 -20 62 -7 167 -45 156 -55 -3 -3
-29 6 -59 20 -45 21 -69 25 -146 25 -50 0 -94 4 -97 9 -7 11 12 27 39 34 14 3
11 5 -10 6 -17 0 -35 -3 -40 -8 -6 -5 -62 -5 -130 0 -66 4 -187 13 -270 19
-150 10 -313 43 -374 75 -35 18 -41 18 -41 5z m620 -119 c0 -12 -29 -23 -42
-15 -6 4 -5 10 3 15 18 11 39 11 39 0z m73 -8 c-7 -2 -21 -2 -30 0 -10 3 -4 5
12 5 17 0 24 -2 18 -5z m60 0 c-7 -2 -19 -2 -25 0 -7 3 -2 5 12 5 14 0 19 -2
13 -5z m-264 -72 c10 -6 3 -9 -22 -8 -20 0 -34 5 -31 9 7 11 35 10 53 -1z
m803 -38 c67 -30 93 -53 59 -53 -12 0 -24 7 -27 15 -4 8 -11 15 -17 15 -6 0
-19 7 -29 17 -10 9 -21 13 -25 9 -4 -4 -1 -12 7 -17 12 -9 10 -10 -7 -6 -12 3
-23 1 -25 -4 -2 -5 -23 -5 -48 -1 -42 8 -43 9 -17 15 18 5 27 14 27 28 0 24
12 22 102 -18z m-552 -7 c0 -2 -7 -7 -16 -10 -8 -3 -12 -2 -9 4 6 10 25 14 25
6z m-365 -66 c-10 -11 -23 -20 -28 -20 -6 0 0 11 13 25 27 29 42 25 15 -5z
m165 20 c0 -5 -4 -10 -10 -10 -5 0 -10 5 -10 10 0 6 5 10 10 10 6 0 10 -4 10
-10z m515 -50 c3 -6 -1 -7 -9 -4 -18 7 -21 14 -7 14 6 0 13 -4 16 -10z m42
-26 c-3 -3 -12 -4 -19 -1 -8 3 -5 6 6 6 11 1 17 -2 13 -5z m56 -1 c3 -5 -6 -9
-19 -9 -13 -1 -21 2 -18 7 6 11 31 12 37 2z m41 -92 c24 -10 27 -10 18 1 -8
11 -7 14 7 14 12 0 18 -7 16 -21 -1 -11 3 -28 7 -38 8 -16 7 -16 -21 1 -33 20
-121 99 -121 109 0 4 15 -7 33 -23 17 -17 45 -36 61 -43z m-910 47 c-4 -7 -19
-29 -34 -48 -15 -19 -30 -44 -34 -54 -3 -10 -9 -16 -12 -13 -8 7 13 45 50 89
32 38 43 48 30 26z m840 -53 c9 -14 15 -25 13 -25 -2 0 -14 11 -27 25 -13 14
-19 25 -13 25 6 0 18 -11 27 -25z m-513 -158 c-13 -13 -15 31 -3 60 5 14 8 10
10 -16 2 -18 -1 -38 -7 -44z m-155 -17 c20 0 17 -14 -6 -35 -20 -18 -20 -17
-19 21 0 21 3 33 6 27 2 -7 11 -13 19 -13z m-36 -90 c0 -5 -4 -10 -10 -10 -5
0 -10 5 -10 10 0 6 5 10 10 10 6 0 10 -4 10 -10z m24 -75 c-4 -8 -10 -12 -15
-9 -14 8 -10 24 6 24 9 0 12 -6 9 -15z m126 -19 c0 -8 -6 -16 -14 -19 -10 -4
-12 0 -9 14 6 22 23 26 23 5z"/>
<path d="M2620 5250 c-13 -8 -12 -10 3 -10 9 0 17 5 17 10 0 12 -1 12 -20 0z"/>
<path d="M1520 5345 c0 -6 99 -136 111 -145 3 -3 14 -20 23 -38 9 -18 21 -30
26 -27 18 11 10 26 -48 93 -32 37 -64 77 -72 88 -16 21 -40 39 -40 29z"/>
<path d="M3900 5187 c-30 -5 -66 -18 -79 -28 -18 -15 -27 -16 -38 -8 -23 20
-137 -26 -189 -75 -19 -18 -57 -49 -99 -81 -22 -16 -74 -62 -115 -102 -41 -40
-98 -90 -126 -111 -69 -50 -84 -77 -84 -151 0 -55 2 -63 24 -72 13 -6 30 -22
37 -35 7 -13 16 -24 21 -24 4 0 8 -6 8 -13 0 -7 -24 -25 -52 -39 -124 -62
-278 -211 -343 -330 -46 -84 -85 -215 -85 -286 0 -55 -4 -70 -32 -110 -59 -88
-127 -157 -185 -191 -103 -61 -164 -105 -199 -143 l-34 -38 -57 36 c-32 20
-68 46 -81 58 -23 20 -62 97 -62 122 0 7 -7 20 -16 28 -8 9 -13 20 -10 25 3 5
-2 45 -11 90 -12 64 -19 81 -33 81 -10 0 -20 -10 -24 -22 -12 -47 -6 -156 13
-209 l19 -55 -45 -59 c-25 -33 -59 -75 -76 -92 -30 -32 -32 -51 -3 -40 8 3 37
40 65 81 28 41 55 77 60 80 5 3 14 -8 21 -24 7 -17 16 -30 20 -30 4 0 18 -10
32 -22 57 -54 127 -108 137 -108 6 0 11 -2 11 -5 0 -17 -72 -116 -108 -150
-52 -47 -74 -85 -81 -140 -6 -40 -6 -40 -66 -52 -64 -14 -114 -10 -155 12 -14
8 -49 21 -78 30 -60 19 -72 36 -72 100 0 33 -4 45 -12 42 -8 -2 -13 -23 -13
-55 0 -29 -4 -52 -8 -52 -22 0 -42 38 -48 93 -6 53 -4 67 17 108 35 70 53 79
156 79 52 0 88 4 88 10 0 6 -36 10 -89 10 -97 0 -118 -9 -162 -71 -28 -40 -42
-151 -24 -195 16 -39 55 -76 73 -69 25 9 42 -13 32 -41 -12 -32 1 -64 36 -90
41 -30 80 -37 121 -22 31 11 34 16 30 43 l-5 30 93 3 93 2 21 -35 c19 -33 44
-45 55 -27 2 4 -9 27 -25 51 -16 24 -29 57 -29 72 0 49 29 103 69 131 26 18
59 61 97 125 68 114 120 174 201 228 202 137 311 273 369 460 26 83 77 155
186 261 99 97 154 127 263 144 28 4 59 11 70 16 18 7 18 6 6 -9 -14 -18 -4
-31 110 -133 80 -72 108 -121 125 -215 8 -46 13 -104 12 -129 -3 -40 -1 -45
20 -48 18 -3 21 -6 12 -17 -13 -15 2 -54 26 -68 17 -10 18 -37 2 -37 -18 0
-78 -50 -78 -65 0 -8 11 -17 24 -21 16 -4 29 -19 40 -48 9 -23 16 -45 16 -48
0 -4 -18 -13 -41 -19 -28 -9 -52 -27 -77 -58 -65 -80 -187 -195 -232 -220
-132 -71 -236 -120 -267 -126 -19 -3 -47 -11 -62 -17 -33 -14 -33 -14 -108
-26 -67 -12 -133 -38 -133 -54 0 -6 8 -7 18 -3 59 25 92 34 128 35 22 0 49 6
59 14 10 7 27 11 37 8 71 -18 277 92 472 255 35 29 90 53 122 53 22 0 23 -3
18 -36 -4 -27 -2 -35 8 -32 7 3 14 21 16 42 3 33 8 39 45 55 53 23 110 34 102
21 -3 -6 -1 -10 4 -10 6 0 11 5 11 11 0 27 67 59 121 59 31 0 37 -14 16 -39
-8 -9 -19 -35 -25 -58 -8 -25 -19 -43 -29 -45 -14 -2 -20 -23 -30 -98 -17
-138 -17 -150 7 -150 11 0 23 7 26 15 4 8 10 12 15 9 13 -8 40 16 33 28 -3 5
-12 7 -20 4 -8 -3 -14 0 -15 7 0 7 -4 3 -8 -8 -8 -19 -8 -19 -15 3 -6 17 1 41
21 83 15 32 31 59 35 59 13 0 21 -50 14 -96 -5 -43 -4 -45 17 -42 17 2 24 13
33 48 8 34 15 45 30 45 12 0 25 13 36 35 l17 35 1 -42 c0 -35 3 -43 19 -43 12
0 21 -10 26 -27 6 -27 7 -26 30 24 26 56 40 70 51 51 4 -7 16 9 30 41 13 29
28 50 33 47 5 -4 16 0 24 9 13 13 16 12 21 -7 6 -24 -20 -61 -38 -55 -19 6
-48 -43 -54 -89 -4 -41 -7 -45 -27 -40 -19 5 -25 -1 -38 -35 -13 -33 -20 -40
-39 -37 -16 2 -24 -3 -26 -17 -2 -11 -10 -23 -17 -28 -8 -4 -17 -22 -21 -39
-8 -39 -33 -61 -51 -46 -10 8 -13 5 -13 -13 0 -19 -2 -21 -10 -9 -8 13 -10 12
-10 -2 0 -10 -5 -18 -10 -18 -6 0 -16 -11 -22 -25 -9 -20 -8 -31 2 -50 12 -22
11 -27 -11 -46 -23 -20 -24 -20 -27 -2 -2 11 1 38 6 61 6 24 6 42 1 42 -5 0
-9 -6 -9 -13 0 -7 -9 -29 -20 -50 -11 -20 -20 -43 -20 -51 0 -8 -7 -21 -15
-30 -9 -8 -14 -21 -13 -28 2 -7 -5 -12 -14 -12 -10 1 -18 -5 -18 -13 0 -30 44
-9 63 30 21 45 32 48 23 6 -5 -27 -3 -30 16 -27 18 2 30 21 58 88 54 131 80
150 80 59 0 -45 1 -48 18 -38 12 7 17 20 15 33 -6 27 32 76 58 76 23 0 23 -4
3 -62 -16 -49 -16 -138 1 -139 6 0 12 7 13 17 2 9 -1 14 -6 10 -12 -7 9 69 22
81 5 4 6 -8 2 -29 -5 -30 -4 -38 8 -38 9 0 23 26 38 75 13 41 26 75 31 75 11
0 9 -23 -8 -70 -19 -53 -19 -51 3 -43 14 6 15 4 4 -9 -10 -12 -9 -18 3 -28 14
-12 14 -15 -1 -31 -22 -24 -33 -16 -26 18 5 25 4 27 -11 14 -21 -17 -22 -35
-3 -50 12 -10 8 -19 -29 -57 -24 -24 -47 -44 -50 -44 -4 0 -4 14 0 30 8 34 -8
60 -34 59 -13 0 -13 -2 2 -8 17 -6 17 -8 -1 -24 -11 -10 -24 -17 -30 -15 -6 2
-18 -6 -26 -17 -15 -20 -15 -20 -16 3 0 32 -14 21 -60 -51 -38 -58 -52 -107
-30 -107 16 0 23 -46 10 -72 -11 -22 -10 -22 4 -3 9 11 28 35 43 54 15 18 33
43 40 55 11 19 12 17 13 -20 0 -41 0 -41 32 -35 24 5 39 17 56 46 l24 40 -6
-32 c-6 -36 20 -55 40 -29 21 29 27 16 20 -44 l-7 -60 34 0 c40 0 74 -29 55
-48 -9 -9 -8 -12 5 -12 9 0 17 5 17 11 0 5 5 7 10 4 8 -5 8 -11 0 -20 -20 -24
10 -29 33 -6 20 20 20 21 3 21 -35 0 74 96 118 104 29 6 37 4 34 -6 -3 -7 -14
-14 -26 -16 -12 -2 -22 -8 -22 -14 0 -6 -3 -8 -7 -5 -12 13 -31 -29 -38 -86
-8 -61 -3 -66 35 -40 32 21 43 40 47 78 2 16 9 35 16 42 10 10 12 5 9 -28 -4
-39 -3 -41 19 -34 18 5 20 4 9 -4 -12 -8 -12 -12 2 -28 9 -10 18 -31 20 -48 4
-29 4 -28 17 15 7 25 18 51 24 59 9 12 9 13 0 7 -8 -4 -13 -1 -13 8 0 9 -5 16
-11 16 -6 0 -1 11 12 25 13 13 31 25 40 25 9 0 27 10 40 23 13 12 38 29 54 37
17 8 38 21 47 28 15 13 18 13 22 1 12 -39 13 -119 5 -293 -6 -105 -12 -261
-13 -346 -5 -225 -52 -469 -111 -575 -49 -89 -62 -98 -145 -100 -39 -1 -70 -1
-70 0 0 2 7 16 15 31 18 36 20 97 3 92 -7 -3 -16 -22 -21 -44 -4 -21 -11 -42
-16 -47 -4 -4 -39 -10 -76 -13 -86 -5 -110 9 -126 72 -8 32 -16 44 -26 40 -16
-6 -33 31 -33 72 0 15 8 57 17 94 19 73 12 97 -17 58 l-18 -24 5 27 c3 15 9
27 13 27 13 0 3 170 -11 187 -9 10 -22 13 -41 9 -16 -3 -27 -2 -24 3 10 16
-18 29 -76 36 -38 5 -58 4 -58 -3 0 -6 10 -14 23 -18 20 -6 19 -8 -15 -20 -20
-7 -61 -15 -91 -19 -66 -8 -67 -9 -99 -65 -15 -25 -63 -83 -108 -128 l-81 -82
-39 10 c-22 6 -42 15 -45 20 -3 6 -15 10 -25 10 -10 0 -20 4 -22 9 -1 4 -80
46 -175 93 -94 46 -170 81 -167 76 3 -4 0 -8 -5 -8 -6 0 -11 7 -11 16 0 14 -2
15 -17 3 -14 -12 -16 -12 -11 1 4 11 -38 37 -161 98 -91 46 -170 87 -176 92
-5 4 -29 14 -52 21 -24 6 -43 16 -43 20 0 4 -9 11 -20 14 -11 3 -20 11 -20 16
0 12 63 11 117 -1 23 -5 66 -12 95 -14 29 -3 123 -14 208 -26 85 -11 166 -18
178 -15 13 3 21 2 18 -3 -3 -5 27 -12 67 -16 40 -3 106 -10 147 -16 41 -5 113
-14 160 -20 47 -6 98 -13 114 -16 17 -4 26 -2 22 4 -3 5 -29 12 -57 16 -38 5
-68 18 -107 47 -30 21 -63 39 -72 39 -9 0 -21 5 -27 11 -6 6 -73 17 -149 25
-241 25 -253 28 -272 53 -77 105 -120 214 -108 272 4 20 -6 33 -54 74 -67 57
-257 256 -285 298 -18 28 -18 29 1 27 36 -4 43 0 59 31 19 36 14 59 -14 59
-11 0 -31 11 -45 25 -14 14 -37 25 -51 25 -17 0 -24 4 -19 11 5 8 0 10 -17 6
-14 -4 -51 -9 -82 -13 -52 -6 -60 -4 -84 17 -21 20 -25 21 -20 6 7 -17 3 -18
-45 -12 -29 4 -66 15 -83 24 -28 16 -30 21 -28 72 1 48 0 52 -13 34 -40 -54 2
-138 75 -151 20 -3 47 -9 61 -13 14 -4 45 -6 70 -4 l45 4 0 -42 0 -43 65 -12
c35 -6 66 -16 68 -23 4 -11 65 -90 163 -208 31 -37 88 -99 127 -136 64 -61 72
-73 83 -125 13 -58 46 -136 80 -184 20 -28 25 -53 9 -43 -15 9 -48 15 -120 20
-36 2 -91 8 -122 14 -32 5 -74 7 -94 4 -24 -4 -35 -3 -31 4 4 6 -22 13 -71 17
-146 13 -282 40 -282 56 0 3 -15 12 -34 18 -61 22 -61 24 -42 218 10 96 15
178 12 181 -3 4 -6 -3 -6 -15 0 -15 -6 -20 -22 -20 -13 1 -28 6 -35 11 -15 11
-23 -38 -50 -328 l-5 -50 -69 -3 c-80 -3 -201 -39 -274 -81 -176 -102 -287
-285 -302 -496 -17 -264 153 -518 412 -614 63 -23 83 -26 205 -25 121 0 142 3
202 27 98 38 155 74 223 142 210 207 245 526 85 774 -22 34 -40 64 -40 66 0 3
25 -9 55 -25 31 -17 65 -30 76 -30 11 0 17 -5 14 -10 -4 -7 3 -9 22 -5 18 5
24 3 15 -3 -10 -7 -7 -13 12 -25 14 -10 29 -17 34 -17 5 0 43 -19 83 -43 106
-61 126 -72 199 -108 36 -17 73 -38 82 -46 9 -9 22 -12 30 -7 7 4 10 4 6 -1
-10 -10 142 -86 155 -78 6 3 7 1 3 -5 -4 -7 -1 -12 8 -12 9 0 16 -4 16 -9 0
-9 33 -24 53 -26 4 0 11 -5 15 -10 4 -5 21 -18 38 -27 24 -14 34 -15 44 -5 10
10 12 9 7 -5 -7 -19 20 -39 96 -75 28 -13 59 -20 75 -18 15 3 79 7 142 9 63 3
129 8 146 11 30 7 31 6 59 -67 57 -147 169 -271 309 -338 102 -49 147 -59 266
-60 116 0 188 17 291 71 140 73 254 210 301 364 28 92 30 253 4 340 -48 159
-157 297 -299 375 -89 48 -84 32 -67 240 7 91 6 136 -6 220 -9 58 -18 123 -20
145 -6 52 -49 254 -80 375 -14 53 -49 145 -79 208 -30 62 -55 116 -55 121 0 4
15 21 33 38 17 16 57 64 87 106 126 176 285 376 383 479 22 24 37 50 37 65 0
23 -26 83 -40 93 -4 3 -15 20 -25 39 -16 32 -16 35 4 62 12 15 21 42 21 60 0
48 -56 142 -126 213 -35 35 -64 72 -64 83 0 21 -25 47 -84 86 -21 14 -80 66
-131 116 -68 67 -99 91 -118 91 -14 0 -32 6 -39 13 -37 38 -105 49 -128 22
-16 -19 -46 -4 -54 29 -3 13 -24 39 -46 56 -22 17 -40 38 -40 46 0 8 -17 22
-37 31 -21 8 -57 28 -80 44 -45 31 -147 73 -198 81 -16 3 -55 1 -85 -5z m-380
-565 c0 -5 -12 -14 -27 -21 l-28 -11 24 20 c26 22 31 24 31 12z m718 -160 c3
-21 7 -23 43 -17 31 5 40 3 45 -10 9 -22 -12 -35 -59 -35 -35 0 -36 -1 -25
-20 9 -15 10 -23 2 -28 -30 -20 -71 -59 -77 -75 -10 -27 -52 -21 -65 8 -19 41
-14 64 13 77 21 9 27 8 38 -6 12 -16 14 -16 30 2 17 19 17 20 -18 40 -39 24
-43 33 -19 53 51 42 87 46 92 11z m316 -58 c18 -7 21 -30 6 -39 -5 -3 -19 -1
-31 6 -26 14 -53 -8 -43 -34 5 -14 15 -16 53 -11 38 5 51 2 74 -16 47 -37 28
-120 -28 -120 -37 0 -51 25 -31 55 9 14 14 25 11 26 -3 0 -28 1 -55 1 -47 1
-53 -2 -79 -38 l-29 -38 24 -19 c23 -18 26 -18 49 -3 31 20 54 20 62 0 9 -25
-35 -64 -74 -64 -29 0 -33 -3 -33 -27 0 -14 -8 -35 -17 -45 -54 -58 -68 -68
-94 -68 -24 0 -29 -4 -29 -25 0 -32 -70 -85 -112 -85 -33 0 -87 25 -105 49
-18 24 -27 96 -14 119 20 38 42 52 79 52 21 0 48 -7 60 -16 21 -15 22 -14 22
14 0 26 -3 29 -25 24 -23 -4 -25 -2 -25 36 0 32 5 43 28 58 15 10 44 18 65 17
30 0 47 -9 87 -47 44 -42 60 -53 60 -42 0 1 -10 14 -22 28 -13 14 -31 36 -42
49 -10 13 -28 34 -39 47 -16 17 -18 25 -9 34 9 9 17 7 35 -10 l23 -22 23 31
c12 16 33 34 47 39 16 7 24 17 24 34 0 45 52 70 104 50z m-474 -79 c0 -20 7
-49 15 -66 16 -29 13 -49 -6 -49 -6 0 -15 14 -20 30 -9 24 -17 30 -39 30 -33
0 -52 19 -21 21 12 1 27 2 34 3 6 0 13 16 15 34 4 43 22 41 22 -3z m-49 -78
c38 -26 51 -57 23 -57 -10 0 -30 12 -45 26 -38 36 -56 22 -28 -22 31 -50 14
-56 -26 -9 -19 22 -34 42 -35 45 0 8 53 39 66 40 6 0 26 -10 45 -23z m-102
-82 c36 -42 38 -58 11 -85 -29 -29 -90 -27 -120 5 -19 20 -21 27 -10 40 11 13
15 12 38 -10 28 -28 70 -33 79 -9 3 9 -6 28 -26 48 -28 29 -32 46 -10 46 4 0
21 -16 38 -35z m-141 -214 c9 -5 -3 -10 -35 -14 -26 -3 -56 -9 -65 -12 -14 -6
-18 -2 -18 14 0 19 6 21 53 21 28 0 58 -4 65 -9z m69 -27 c-3 -3 -12 -4 -19
-1 -8 3 -5 6 6 6 11 1 17 -2 13 -5z m98 -34 c-3 -5 -15 -10 -26 -10 -11 0 -17
5 -14 10 3 6 15 10 26 10 11 0 17 -4 14 -10z m93 -12 c21 -21 13 -27 -20 -16
-48 16 -57 28 -22 28 17 0 35 -5 42 -12z m67 -58 c3 -5 1 -10 -4 -10 -6 0 -11
5 -11 10 0 6 2 10 4 10 3 0 8 -4 11 -10z m-365 -20 c0 -5 -14 -10 -31 -10 -17
0 -28 4 -24 10 3 6 17 10 31 10 13 0 24 -4 24 -10z m443 -49 c-4 -6 -43 30
-43 40 0 5 10 -2 23 -14 13 -12 22 -24 20 -26z m-293 19 c0 -5 -9 -10 -20 -10
-11 0 -20 5 -20 10 0 6 9 10 20 10 11 0 20 -4 20 -10z m268 -29 c3 -8 -1 -12
-9 -9 -7 2 -15 10 -17 17 -3 8 1 12 9 9 7 -2 15 -10 17 -17z m70 -24 c2 -10
-3 -17 -12 -17 -9 0 -16 2 -16 4 0 2 -3 12 -6 21 -5 13 -2 16 12 13 10 -2 20
-11 22 -21z m-437 -78 c-10 -23 -10 -23 -10 7 -1 17 2 34 7 38 11 12 14 -18 3
-45z m-1701 -10 c0 -6 -4 -7 -10 -4 -5 3 -10 11 -10 16 0 6 5 7 10 4 6 -3 10
-11 10 -16z m1770 -64 c-7 -8 -19 -15 -26 -15 -8 0 -11 6 -8 15 4 8 15 15 26
15 17 0 18 -3 8 -15z m541 -24 c13 -11 21 -23 17 -27 -4 -4 -19 5 -32 19 -29
31 -19 36 15 8z m-304 -77 c-3 -3 -12 -4 -19 -1 -8 3 -5 6 6 6 11 1 17 -2 13
-5z m-42 -66 c-3 -13 -7 -28 -7 -34 -1 -6 -10 -16 -20 -23 -14 -9 -18 -8 -18
3 0 7 7 19 15 26 8 7 15 21 15 31 0 11 5 19 11 19 7 0 9 -8 4 -22z m102 -100
c-3 -7 -5 -2 -5 12 0 14 2 19 5 13 2 -7 2 -19 0 -25z m-160 -15 c-3 -10 -5 -4
-5 12 0 17 2 24 5 18 2 -7 2 -21 0 -30z m415 -55 c19 -22 19 -23 -1 -32 -18
-8 -21 -18 -21 -64 0 -58 -13 -64 -18 -9 -6 66 -5 94 1 110 8 22 16 21 39 -5z
m225 -60 c-3 -8 -6 -5 -6 6 -1 11 2 17 5 13 3 -3 4 -12 1 -19z m-321 -22 c8
-8 14 -21 14 -30 0 -22 -20 -31 -21 -9 0 16 -1 16 -9 -2 -7 -16 -9 -13 -9 18
-1 40 3 44 25 23z m367 -57 c15 -33 27 -68 27 -77 -1 -23 -24 21 -41 76 -6 23
-16 42 -21 42 -4 0 -8 5 -8 10 0 26 19 4 43 -51z m-410 -30 c-5 -19 -7 -19
-15 -5 -10 18 -2 39 12 31 4 -3 6 -15 3 -26z m6 -68 c-15 -5 -22 6 -14 19 6 9
10 9 16 -1 5 -8 4 -15 -2 -18z m-29 3 c0 -17 -24 -46 -50 -59 -33 -17 -40 -11
-33 28 4 22 10 27 24 24 11 -3 22 -1 25 4 6 10 34 13 34 3z m260 -51 c0 -17
-4 -34 -9 -37 -10 -6 -23 73 -14 87 9 15 23 -15 23 -50z m-40 -64 c0 -40 -10
-59 -31 -59 -21 0 -51 -57 -51 -96 0 -20 -8 -29 -37 -41 -20 -8 -38 -18 -41
-22 -3 -4 -23 -18 -45 -31 -39 -23 -39 -23 -21 -2 11 12 24 22 29 22 18 0 36
34 25 48 -8 10 -13 9 -23 -5 -8 -10 -17 -15 -20 -11 -12 12 4 40 25 45 11 3
20 13 20 22 0 9 9 34 20 56 11 22 20 47 20 56 0 24 26 44 36 27 5 -7 7 -20 6
-30 -4 -23 17 -33 24 -11 3 10 13 35 22 56 14 36 17 37 29 21 7 -10 13 -30 13
-45z m304 -142 c12 -55 12 -73 3 -79 -21 -13 -27 -9 -27 22 0 17 -5 30 -12 31
-10 0 -10 2 0 6 18 7 15 53 -5 76 -13 14 -14 21 -6 24 8 3 10 16 7 36 -4 30
-4 30 11 -6 8 -21 21 -71 29 -110z m-134 123 c0 -5 -5 -10 -11 -10 -5 0 -7 5
-4 10 3 6 8 10 11 10 2 0 4 -4 4 -10z m-340 -20 c-6 -11 -15 -20 -21 -20 -6 0
-6 7 1 20 6 11 15 20 21 20 6 0 6 -7 -1 -20z m295 -10 c-3 -5 -12 -10 -18 -10
-7 0 -6 4 3 10 19 12 23 12 15 0z m73 -19 c10 -6 7 -10 -12 -15 -19 -5 -27
-15 -32 -42 -8 -42 -24 -27 -24 23 0 39 34 56 68 34z m12 -101 c-8 -5 -19 -10
-25 -10 -5 0 -3 5 5 10 8 5 20 10 25 10 6 0 3 -5 -5 -10z m-257 -85 c-12 -38
-13 -50 -4 -53 7 -2 -10 -17 -38 -33 -64 -37 -72 -82 -9 -48 18 10 17 7 -6
-23 -14 -19 -26 -43 -26 -54 1 -18 1 -18 14 -2 13 18 26 14 26 -8 0 -8 -6 -11
-15 -8 -8 4 -15 1 -15 -6 0 -10 -3 -10 -15 0 -12 10 -15 10 -15 -4 0 -9 5 -16
11 -16 5 0 7 -5 3 -12 -5 -8 -11 -5 -17 11 -6 12 -16 20 -23 17 -19 -7 -27 29
-13 56 9 16 9 23 0 26 -20 7 -12 18 32 42 55 30 77 50 77 68 0 16 41 104 47
99 1 -2 -5 -26 -14 -52z m167 38 c0 -5 -28 -23 -63 -42 -65 -35 -57 -15 10 24
42 25 53 29 53 18z m193 -59 c12 -4 17 -16 16 -38 -1 -18 -3 -24 -6 -13 -3 14
-11 17 -27 13 -19 -5 -22 -1 -24 25 -2 22 1 29 10 25 7 -3 21 -9 31 -12z
m-249 -16 c-22 -17 -28 -30 -26 -50 2 -15 -2 -35 -8 -45 -9 -15 -10 -9 -6 25
4 40 3 43 -16 39 -25 -7 -18 0 29 29 49 30 66 31 27 2z m-77 -4 c-3 -3 -12 -4
-19 -1 -8 3 -5 6 6 6 11 1 17 -2 13 -5z m-336 -38 c-6 -14 -15 -26 -21 -26 -7
0 -4 13 6 30 21 35 29 33 15 -4z m476 2 c-3 -8 -6 -5 -6 6 -1 11 2 17 5 13 3
-3 4 -12 1 -19z m-183 -73 c-7 -16 -24 -21 -24 -6 0 8 7 13 27 20 1 1 0 -6 -3
-14z m71 -114 c-3 -6 -11 -8 -17 -5 -6 4 -5 9 3 15 16 10 23 4 14 -10z m-15
-61 c0 -5 -7 -10 -15 -10 -8 0 -15 5 -15 10 0 6 7 10 15 10 8 0 15 -4 15 -10z
m-2183 -256 c-3 -3 -12 -4 -19 -1 -8 3 -5 6 6 6 11 1 17 -2 13 -5z m-386 -75
c-25 -11 -51 -25 -58 -31 -7 -6 -13 -6 -13 -1 0 11 78 52 100 52 8 0 -5 -9
-29 -20z m386 15 c-3 -3 -12 -4 -19 -1 -8 3 -5 6 6 6 11 1 17 -2 13 -5z m796
-11 c-7 -2 -19 -2 -25 0 -7 3 -2 5 12 5 14 0 19 -2 13 -5z m-728 -13 c3 -5 2
-10 -4 -10 -5 0 -13 5 -16 10 -3 6 -2 10 4 10 5 0 13 -4 16 -10z m2521 -15
c10 -8 15 -14 9 -14 -5 0 -19 6 -29 14 -11 8 -15 15 -10 15 6 0 19 -7 30 -15z
m-2776 -7 c0 -7 -9 -82 -20 -167 -11 -85 -18 -162 -15 -170 3 -9 1 -48 -4 -86
-7 -64 -6 -72 12 -88 19 -16 21 -16 39 -1 10 10 18 31 18 48 0 18 6 56 14 86
8 30 22 129 32 218 l18 164 30 -7 c17 -4 38 -8 46 -8 8 -1 17 -4 20 -7 13 -14
91 -60 100 -60 6 0 8 -4 5 -10 -3 -5 5 -15 19 -22 14 -6 26 -17 26 -24 0 -7 9
-19 20 -27 11 -8 17 -17 13 -20 -3 -4 -1 -7 5 -7 7 0 12 -7 12 -15 0 -9 6 -18
14 -21 9 -3 12 -12 9 -21 -4 -9 -2 -14 3 -10 5 3 10 -2 11 -11 0 -9 6 -46 13
-82 14 -81 5 -190 -22 -247 -11 -23 -17 -47 -13 -53 4 -6 2 -9 -3 -8 -6 2 -10
0 -11 -4 -3 -25 -112 -133 -152 -150 -15 -7 -25 -16 -22 -22 4 -5 1 -6 -6 -2
-7 5 -20 1 -30 -8 -18 -16 -37 -20 -151 -32 -60 -6 -171 13 -205 34 -5 4 -16
7 -22 8 -7 1 -19 9 -28 17 -8 9 -24 19 -35 22 -11 4 -18 11 -15 16 4 5 2 9 -4
9 -20 0 -84 77 -112 135 -15 33 -35 92 -43 130 -14 66 -13 77 5 155 11 47 21
93 22 102 1 9 5 14 9 12 4 -3 8 2 8 10 0 9 5 16 10 16 6 0 10 8 8 18 -2 9 2
16 8 15 6 -1 17 9 24 22 7 14 17 25 22 25 4 0 8 5 8 11 0 12 25 40 37 40 4 0
21 11 36 25 15 14 32 22 37 19 5 -3 11 -1 15 5 3 5 16 10 28 10 18 0 19 2 7
10 -11 8 -7 9 14 4 16 -4 27 -3 23 2 -3 5 22 10 54 12 43 2 59 0 59 -10z
m-280 -11 c0 -2 -18 -18 -40 -36 -22 -17 -40 -28 -40 -23 0 5 17 21 38 35 39
27 42 29 42 24z m830 -27 c0 -5 -4 -10 -10 -10 -5 0 -10 5 -10 10 0 6 5 10 10
10 6 0 10 -4 10 -10z m2224 -31 c14 -11 26 -18 26 -14 0 4 12 -7 26 -24 14
-17 31 -28 36 -24 6 3 8 1 5 -4 -8 -13 17 -36 27 -25 4 4 6 3 5 -3 -4 -11 19
-57 33 -66 5 -3 10 -12 11 -20 2 -8 7 -20 11 -28 24 -38 37 -182 25 -271 -7
-44 -45 -128 -74 -160 -8 -9 -15 -22 -15 -28 0 -7 -3 -12 -7 -12 -5 -1 -31
-22 -60 -48 -78 -72 -248 -124 -333 -102 -25 7 -61 14 -80 17 -19 3 -40 12
-48 19 -7 8 -25 17 -40 20 -15 4 -37 17 -50 30 l-23 23 62 -15 c108 -25 236
11 278 80 12 19 28 36 36 40 35 13 92 296 102 504 3 72 9 132 13 132 4 0 19
-9 34 -21z m-2737 -21 c-3 -7 -5 -2 -5 12 0 14 2 19 5 13 2 -7 2 -19 0 -25z
m2854 15 c13 -16 12 -17 -3 -4 -17 13 -22 21 -14 21 2 0 10 -8 17 -17z m-2191
-23 c0 -5 -7 -7 -15 -4 -8 4 -12 10 -9 15 6 11 24 2 24 -11z m797 14 c-3 -3
-12 -4 -19 -1 -8 3 -5 6 6 6 11 1 17 -2 13 -5z m-1068 -57 c-2 -3 -15 10 -28
27 l-24 31 28 -27 c16 -15 27 -29 24 -31z m-819 34 c0 -5 -9 -19 -21 -32 l-20
-24 17 33 c19 33 24 38 24 23z m3324 -7 c3 -8 2 -12 -4 -9 -6 3 -10 10 -10 16
0 14 7 11 14 -7z m-2161 -31 c-5 -13 -2 -15 11 -10 10 4 15 3 11 -3 -3 -6 -1
-10 6 -10 7 0 9 -3 6 -6 -4 -4 -18 1 -33 11 -21 13 -24 19 -13 26 19 12 19 11
12 -8z m-319 -29 c3 -8 2 -12 -4 -9 -6 3 -10 10 -10 16 0 14 7 11 14 -7z m401
6 c3 -5 1 -10 -4 -10 -6 0 -11 5 -11 10 0 6 2 10 4 10 3 0 8 -4 11 -10z m-10
-28 c-3 -3 -11 0 -18 7 -9 10 -8 11 6 5 10 -3 15 -9 12 -12z m-365 -30 c0 -15
-2 -15 -10 -2 -13 20 -13 33 0 25 6 -3 10 -14 10 -23z m-937 3 c-3 -9 -8 -14
-10 -11 -3 3 -2 9 2 15 9 16 15 13 8 -4z m3461 -1 c3 -8 2 -12 -4 -9 -6 3 -10
10 -10 16 0 14 7 11 14 -7z m-1054 0 c0 -3 -7 -31 -17 -62 -9 -32 -17 -95 -17
-143 l-1 -86 -80 -7 c-44 -3 -105 -9 -136 -12 -45 -5 -63 -2 -97 15 l-41 21
51 67 c28 38 63 82 78 100 16 17 31 42 35 55 11 32 22 38 85 39 30 0 66 5 80
9 31 10 60 12 60 4z m-971 -30 c13 -12 -8 -10 -29 2 l-25 15 25 -7 c14 -3 27
-8 29 -10z m-481 -30 c-3 -14 -5 -12 -10 9 -3 19 -2 25 4 19 6 -6 8 -18 6 -28z
m-1001 -191 c-2 -21 -4 -6 -4 32 0 39 2 55 4 38 2 -18 2 -50 0 -70z m1756 90
c-7 -2 -19 -2 -25 0 -7 3 -2 5 12 5 14 0 19 -2 13 -5z m-736 -65 c-3 -7 -5 -2
-5 12 0 14 2 19 5 13 2 -7 2 -19 0 -25z m2540 -30 c-2 -13 -4 -3 -4 22 0 25 2
35 4 23 2 -13 2 -33 0 -45z m-1117 -78 c0 -5 -4 -10 -10 -10 -5 0 -10 5 -10
10 0 6 5 10 10 10 6 0 10 -4 10 -10z m-2423 -22 c-3 -8 -6 -5 -6 6 -1 11 2 17
5 13 3 -3 4 -12 1 -19z m966 -43 c-3 -9 -8 -14 -10 -11 -3 3 -2 9 2 15 9 16
15 13 8 -4z m2515 -70 c-12 -25 -25 -45 -29 -45 -4 0 4 20 18 45 13 25 27 45
29 45 2 0 -6 -20 -18 -45z m-2570 -35 c-7 -10 -14 -17 -17 -15 -4 4 18 35 25
35 2 0 -1 -9 -8 -20z m-782 -62 l29 -33 -32 29 c-31 28 -38 36 -30 36 2 0 16
-15 33 -32z m734 9 c0 -2 -10 -12 -22 -23 l-23 -19 19 23 c18 21 26 27 26 19z
m-110 -91 c0 -2 -7 -7 -16 -10 -8 -3 -12 -2 -9 4 6 10 25 14 25 6z m2505 -36
c-3 -5 -12 -10 -18 -10 -7 0 -6 4 3 10 19 12 23 12 15 0z m-2858 -26 c-3 -3
-12 -4 -19 -1 -8 3 -5 6 6 6 11 1 17 -2 13 -5z m2530 -20 c-3 -3 -12 -4 -19
-1 -8 3 -5 6 6 6 11 1 17 -2 13 -5z m56 -11 c-7 -2 -21 -2 -30 0 -10 3 -4 5
12 5 17 0 24 -2 18 -5z"/>
<path d="M4177 4449 c-21 -12 -13 -29 14 -29 12 0 19 7 19 20 0 22 -7 24 -33
9z"/>
<path d="M4107 4334 c-9 -10 15 -54 30 -54 16 0 17 14 3 41 -11 19 -22 24 -33
13z"/>
<path d="M4223 4163 c-12 -4 -19 -43 -8 -43 3 0 14 9 25 20 11 11 20 22 20 25
0 6 -21 5 -37 -2z"/>
<path d="M4267 4123 c-10 -10 -8 -39 5 -68 16 -35 58 -35 58 0 0 52 -38 94
-63 68z"/>
<path d="M4220 4024 c0 -9 -17 -34 -37 -55 -21 -22 -38 -45 -38 -52 0 -20 33
-19 51 1 9 11 27 32 40 46 23 25 23 28 8 51 -19 29 -24 31 -24 9z"/>
<path d="M4108 4019 c-21 -12 -24 -39 -5 -39 18 0 49 34 40 43 -8 9 -15 8 -35
-4z"/>
<path d="M4351 2754 c0 -11 3 -14 6 -6 3 7 2 16 -1 19 -3 4 -6 -2 -5 -13z"/>
<path d="M4381 2754 c0 -11 3 -14 6 -6 3 7 2 16 -1 19 -3 4 -6 -2 -5 -13z"/>
<path d="M4302 2414 c-7 -8 -8 -14 -3 -14 10 0 25 19 20 25 -2 1 -10 -3 -17
-11z"/>
<path d="M1921 1701 c-18 -27 -34 -67 -37 -88 -4 -36 -4 -36 9 9 7 26 26 63
41 83 16 20 26 38 23 41 -2 3 -19 -18 -36 -45z"/>
<path d="M2381 1404 c0 -11 3 -14 6 -6 3 7 2 16 -1 19 -3 4 -6 -2 -5 -13z"/>
<path d="M2366 1363 c-6 -14 -5 -15 5 -6 7 7 10 15 7 18 -3 3 -9 -2 -12 -12z"/>
<path d="M4946 1415 c-3 -9 -6 -22 -5 -28 0 -7 5 -1 10 12 5 13 8 26 5 28 -2
2 -6 -3 -10 -12z"/>
<path d="M1790 5025 c-2 -5 -4 -14 -5 -20 -1 -5 -5 -18 -10 -28 -11 -26 1 -32
15 -7 6 11 9 31 7 43 -2 12 -6 18 -7 12z"/>
<path d="M1761 4914 c0 -11 3 -14 6 -6 3 7 2 16 -1 19 -3 4 -6 -2 -5 -13z"/>
<path d="M2898 4901 c-20 -4 -25 -10 -19 -20 10 -16 47 -7 55 14 6 16 6 16
-36 6z"/>
<path d="M1491 4740 c-6 -22 -16 -79 -22 -127 -13 -101 -7 -140 48 -303 36
-105 36 -105 19 -152 -19 -53 -11 -84 27 -114 13 -11 30 -36 36 -57 17 -50 58
-97 84 -97 11 0 33 -11 47 -25 15 -14 53 -35 86 -46 48 -17 73 -20 139 -15 44
3 97 5 117 5 20 0 40 6 44 12 5 9 -10 10 -67 4 -122 -14 -195 -9 -225 14 -15
12 -32 21 -38 21 -7 0 -25 14 -42 31 -19 20 -35 28 -48 25 -24 -6 -58 11 -54
27 1 7 -4 23 -11 35 -16 29 -8 64 25 114 13 21 24 42 24 48 0 15 -17 12 -23
-4 -3 -8 -17 -33 -32 -56 -28 -44 -33 -43 -69 11 -14 22 -15 31 -5 53 7 14 16
26 21 26 16 0 7 71 -16 122 -61 135 -78 262 -55 409 12 80 8 98 -10 39z"/>
<path d="M2391 4744 c0 -11 3 -14 6 -6 3 7 2 16 -1 19 -3 4 -6 -2 -5 -13z"/>
<path d="M2907 4754 c-8 -8 1 -24 14 -24 5 0 9 7 9 15 0 15 -12 20 -23 9z"/>
<path d="M2280 4737 c-14 -7 -33 -30 -44 -52 -17 -36 -19 -38 -31 -21 -12 16
-14 16 -20 -4 -4 -12 -16 -31 -26 -41 -10 -10 -19 -29 -19 -41 1 -22 1 -22 12
-3 11 19 48 54 58 55 3 0 11 -4 19 -9 11 -7 12 -13 4 -23 -12 -16 -13 -48 -1
-48 11 0 78 71 78 83 0 4 7 7 15 7 8 0 15 9 15 20 0 13 -7 20 -20 20 -23 0
-26 10 -8 28 10 10 10 15 -1 21 -11 7 -10 10 5 14 12 3 13 5 4 6 -8 0 -26 -5
-40 -12z"/>
<path d="M1740 4696 c0 -8 5 -18 10 -21 6 -3 10 1 10 9 0 8 -4 18 -10 21 -5 3
-10 -1 -10 -9z"/>
<path d="M2070 4675 c-6 -19 -16 -35 -21 -35 -5 0 -9 -7 -9 -15 0 -17 -20 -57
-34 -67 -10 -6 10 -38 23 -38 10 0 51 78 51 96 0 8 5 14 11 14 5 0 7 5 3 11
-4 7 -7 25 -6 40 1 38 -4 36 -18 -6z"/>
<path d="M2427 4693 c-12 -12 -7 -43 7 -43 8 0 14 10 14 25 0 25 -8 31 -21 18z"/>
<path d="M2136 4656 c-17 -26 -21 -56 -8 -56 7 0 33 72 28 78 -2 1 -11 -9 -20
-22z"/>
<path d="M2471 4659 c-10 -17 -19 -20 -42 -15 -26 5 -29 3 -29 -19 0 -35 14
-38 40 -10 30 32 47 32 26 0 -24 -36 -19 -42 9 -11 26 28 30 43 17 63 -6 9
-11 6 -21 -8z"/>
<path d="M2966 4599 c-19 -19 -19 -19 2 -19 24 0 34 11 24 27 -5 6 -14 4 -26
-8z"/>
<path d="M2350 4565 c-7 -14 -10 -28 -7 -32 8 -8 36 26 37 45 0 20 -16 14 -30
-13z"/>
<path d="M2858 4544 c-16 -8 -28 -16 -28 -18 0 -9 40 7 51 20 14 17 11 17 -23
-2z"/>
<path d="M1860 4524 c0 -8 5 -12 10 -9 6 3 10 10 10 16 0 5 -4 9 -10 9 -5 0
-10 -7 -10 -16z"/>
<path d="M2151 4514 c0 -11 3 -14 6 -6 3 7 2 16 -1 19 -3 4 -6 -2 -5 -13z"/>
<path d="M2720 4489 c0 -5 -3 -8 -7 -6 -5 3 -24 -11 -43 -29 -39 -38 -28 -48
12 -11 14 13 30 21 36 19 7 -2 12 6 12 17 0 12 -2 21 -5 21 -3 0 -5 -5 -5 -11z"/>
<path d="M2746 4484 c-4 -10 -1 -14 6 -12 15 5 23 28 10 28 -5 0 -13 -7 -16
-16z"/>
<path d="M1906 4445 c-9 -26 -7 -32 5 -12 6 10 9 21 6 23 -2 3 -7 -2 -11 -11z"/>
<path d="M1991 4414 c0 -11 3 -14 6 -6 3 7 2 16 -1 19 -3 4 -6 -2 -5 -13z"/>
<path d="M2587 4413 c-12 -12 -7 -22 8 -17 8 4 15 10 15 15 0 11 -14 12 -23 2z"/>
<path d="M2505 4370 c-3 -5 -2 -10 4 -10 5 0 13 5 16 10 3 6 2 10 -4 10 -5 0
-13 -4 -16 -10z"/>
<path d="M2162 4312 c-64 -20 -71 -35 -18 -39 29 -1 43 3 53 16 12 18 15 18
60 3 64 -20 74 -25 75 -37 1 -5 15 -17 32 -25 39 -19 66 -41 66 -56 0 -6 9
-19 19 -28 18 -16 21 -16 55 14 20 18 36 38 36 45 0 15 -87 61 -110 58 -8 -1
-31 3 -50 9 -19 7 -39 12 -45 13 -5 0 -29 10 -52 23 -49 25 -50 25 -121 4z"/>
<path d="M1805 4275 c-34 -35 -47 -75 -23 -75 6 0 26 18 45 40 23 26 49 44 81
53 l47 15 -57 1 c-53 1 -60 -2 -93 -34z"/>
<path d="M2829 4253 c-13 -16 -12 -17 4 -4 16 13 21 21 13 21 -2 0 -10 -8 -17
-17z"/>
<path d="M3248 4233 c7 -3 16 -2 19 1 4 3 -2 6 -13 5 -11 0 -14 -3 -6 -6z"/>
<path d="M3360 4231 c0 -5 7 -14 15 -21 8 -7 15 -19 15 -26 0 -8 7 -14 16 -14
10 0 14 6 10 15 -7 19 -6 19 32 -1 35 -17 43 -27 15 -17 -11 3 -8 -4 10 -19
33 -31 34 -38 2 -72 -21 -22 -27 -25 -39 -14 -11 11 -11 15 5 26 23 16 25 42
3 42 -16 0 -74 -40 -58 -40 5 -1 -2 -10 -16 -22 l-25 -21 33 8 34 7 -45 -41
c-59 -55 -106 -58 -55 -4 17 19 18 23 5 18 -11 -5 -19 -1 -23 10 -5 13 -9 14
-15 3 -6 -9 -9 -5 -9 12 0 21 5 26 27 28 15 1 29 6 32 11 3 5 22 20 43 33 l36
25 -28 16 c-22 13 -37 15 -67 8 -21 -5 -29 -10 -18 -10 18 -1 18 -3 5 -14 -9
-7 -25 -30 -36 -52 -12 -22 -29 -42 -40 -45 -10 -3 -19 -11 -20 -17 -2 -27 -4
-33 -12 -33 -4 0 -12 10 -17 23 -7 15 -20 23 -43 25 -18 2 -36 10 -39 18 -7
19 -51 -22 -111 -105 -39 -55 -47 -72 -50 -123 -6 -74 5 -75 75 -6 l52 52 27
-27 27 -27 33 25 c42 32 58 32 50 1 -8 -31 9 -42 37 -24 33 21 86 38 91 29 6
-10 -31 -45 -56 -54 -11 -4 -15 -12 -11 -23 5 -14 1 -15 -26 -9 -17 4 -37 2
-44 -3 -7 -5 -24 -12 -39 -16 -26 -6 -33 0 -29 27 0 4 -19 7 -43 7 -50 0 -150
-50 -201 -101 l-30 -30 27 6 c15 4 41 2 58 -4 26 -9 32 -8 37 7 9 25 55 63 72
60 19 -4 27 -28 9 -28 -30 0 -67 -67 -43 -76 18 -7 68 23 60 35 -3 5 2 11 9
14 15 6 29 -6 40 -37 4 -12 11 -16 24 -11 9 4 33 11 52 16 19 4 36 13 38 18 9
26 19 7 15 -28 -3 -35 -1 -39 22 -45 17 -4 31 -1 41 9 9 8 24 15 35 15 10 0
19 4 19 10 0 5 6 7 14 4 8 -3 16 0 19 8 2 7 3 0 1 -17 -4 -28 -4 -28 10 -10
10 14 13 32 9 59 l-6 39 56 -7 c54 -7 55 -7 81 27 20 26 25 42 20 61 -4 16 -2
26 5 26 6 0 11 16 11 35 0 19 -4 35 -10 35 -5 0 -10 -9 -10 -21 0 -12 -4 -17
-11 -13 -8 4 -9 0 -4 -15 4 -12 2 -21 -4 -21 -6 0 -11 8 -11 18 0 13 -3 11
-13 -7 -6 -14 -17 -26 -24 -28 -19 -7 -7 60 14 74 66 47 64 43 57 95 -5 38 -3
53 10 67 15 16 15 19 1 31 -8 7 -15 17 -15 22 0 23 -53 76 -104 102 -31 16
-56 33 -56 38 0 4 -9 8 -20 8 -11 0 -20 -4 -20 -9z m160 -181 c0 -5 -4 -10 -8
-10 -5 0 -30 -20 -58 -45 -51 -46 -59 -51 -68 -36 -11 17 45 76 82 88 48 15
52 15 52 3z m-4 -96 c-9 -6 -16 -16 -16 -21 0 -14 -46 -37 -59 -29 -6 4 -11
15 -10 24 0 10 3 12 5 5 5 -12 67 39 64 53 -1 4 4 11 12 15 20 13 24 -32 4
-47z m31 24 c-3 -8 -6 -5 -6 6 -1 11 2 17 5 13 3 -3 4 -12 1 -19z m-133 -188
c-15 -31 -23 -58 -19 -70 7 -22 5 -23 -19 -14 -9 4 -16 18 -16 34 0 16 -6 30
-12 33 -7 2 -11 6 -8 9 85 74 109 77 74 8z"/>
<path d="M3158 4213 c-10 -2 -18 -8 -18 -12 0 -4 -16 -13 -36 -20 l-36 -13 27
-14 c15 -8 46 -16 69 -19 30 -4 36 -3 21 4 -19 9 -18 10 5 11 28 1 78 35 68
46 -4 4 -32 -5 -61 -19 -53 -25 -79 -29 -93 -14 -4 4 2 7 14 7 12 0 22 5 22
10 0 6 7 10 15 10 8 0 15 4 15 10 0 5 7 7 15 4 8 -4 15 -1 15 5 0 11 -11 12
-42 4z"/>
<path d="M2260 4090 c0 -9 -11 -11 -35 -7 -30 5 -35 3 -35 -14 0 -11 7 -19 18
-19 28 0 145 20 155 27 19 12 -34 23 -54 12 -15 -7 -24 -7 -35 2 -11 9 -14 9
-14 -1z"/>
<path d="M2900 3663 c1 -18 19 -35 29 -28 9 5 9 10 0 21 -12 15 -29 19 -29 7z"/>
<path d="M2814 3638 l-19 -23 23 19 c12 11 22 21 22 23 0 8 -8 2 -26 -19z"/>
<path d="M2862 3629 c-10 -15 -11 -24 -3 -32 14 -14 52 19 44 39 -8 20 -26 17
-41 -7z"/>
<path d="M3870 3330 c0 -5 4 -10 9 -10 6 0 13 5 16 10 3 6 -1 10 -9 10 -9 0
-16 -4 -16 -10z"/>
<path d="M3850 3261 c0 -12 -4 -20 -9 -17 -5 3 -12 -2 -15 -11 -6 -15 -8 -15
-16 -3 -7 11 -11 8 -19 -13 -6 -16 -11 -38 -11 -50 0 -18 -2 -19 -10 -7 -8 13
-10 12 -10 -2 0 -24 27 -23 35 1 3 10 14 26 24 35 17 16 18 15 16 -9 -2 -14 0
-25 4 -25 9 0 23 111 16 119 -3 2 -5 -6 -5 -18z"/>
<path d="M3930 3151 c0 -12 5 -21 10 -21 6 0 10 6 10 14 0 8 -4 18 -10 21 -5
3 -10 -3 -10 -14z"/>
<path d="M4040 3160 c0 -5 5 -10 10 -10 6 0 10 -7 10 -17 0 -9 3 -14 6 -10 8
8 -5 47 -17 47 -5 0 -9 -4 -9 -10z"/>
<path d="M3825 3056 c-20 -21 -26 -36 -16 -36 6 0 15 9 21 21 13 24 10 32 -5
15z"/>
<path d="M3702 3028 c-15 -15 -16 -58 -2 -58 5 0 9 8 7 18 -1 9 2 17 8 17 5 0
10 -16 11 -35 0 -19 -1 -29 -3 -22 -8 21 -20 13 -20 -13 0 -28 23 -34 30 -7
15 59 -6 125 -31 100z"/>
<path d="M4010 2980 c0 -5 5 -10 10 -10 6 0 10 5 10 10 0 6 -4 10 -10 10 -5 0
-10 -4 -10 -10z"/>
<path d="M3623 2974 c3 -4 0 -13 -8 -21 -8 -8 -15 -23 -15 -34 0 -11 -4 -17
-10 -14 -5 3 -10 1 -10 -5 0 -6 7 -13 15 -16 8 -4 12 -11 9 -16 -4 -6 2 -8 12
-6 13 2 22 18 30 55 12 55 10 63 -14 63 -9 0 -13 -3 -9 -6z"/>
<path d="M2655 2893 c-38 -20 -64 -38 -58 -40 15 -5 143 56 143 68 0 13 -9 10
-85 -28z"/>
<path d="M3570 2859 c0 -11 -4 -17 -10 -14 -6 4 -10 -5 -10 -21 l0 -27 20 23
c21 24 27 60 10 60 -5 0 -10 -9 -10 -21z"/>
<path d="M4028 2855 c-20 -26 -23 -51 -9 -60 10 -5 35 59 29 74 -2 5 -11 -1
-20 -14z"/>
<path d="M3736 2792 c-4 -6 -16 -12 -28 -12 -14 0 -18 -5 -14 -16 3 -9 6 -27
6 -40 0 -25 1 -24 37 11 20 19 33 38 30 42 -4 3 -7 0 -8 -8 -1 -8 -4 -3 -8 11
-5 17 -9 21 -15 12z"/>
<path d="M3573 2635 c0 -14 3 -22 8 -19 5 3 9 11 9 19 0 8 -4 16 -9 19 -5 3
-8 -5 -8 -19z"/>
<path d="M4165 2450 c-3 -5 -1 -10 4 -10 6 0 11 5 11 10 0 6 -2 10 -4 10 -3 0
-8 -4 -11 -10z"/>
<path d="M4021 2431 c-6 -11 -7 -22 -2 -25 5 -3 11 4 14 16 8 30 1 35 -12 9z"/>
<path d="M4110 2440 c0 -5 5 -10 10 -10 6 0 10 5 10 10 0 6 -4 10 -10 10 -5 0
-10 -4 -10 -10z"/>
<path d="M4742 2425 c-46 -32 -46 -32 -28 -50 15 -15 17 -15 23 2 4 10 16 25
26 34 33 26 15 39 -21 14z"/>
<path d="M4670 2365 c0 -8 8 -15 18 -15 15 -1 15 -2 2 -13 -8 -7 -17 -31 -18
-54 -3 -34 0 -43 12 -43 12 0 16 11 16 49 0 30 5 51 13 54 10 4 10 6 0 6 -7 1
-13 8 -13 16 0 8 -7 15 -15 15 -8 0 -15 -7 -15 -15z"/>
<path d="M4216 2334 c-9 -22 3 -32 14 -14 12 19 12 30 1 30 -5 0 -12 -7 -15
-16z"/>
<path d="M4405 2273 c-13 -32 -16 -73 -6 -73 5 0 12 18 16 41 7 43 2 61 -10
32z"/>
<path d="M4522 2268 c-11 -14 -27 -118 -18 -118 10 0 33 54 40 93 7 37 -3 48
-22 25z"/>
<path d="M4309 2203 c-12 -15 -12 -16 2 -11 9 4 26 0 38 -8 16 -12 19 -21 14
-47 l-6 -32 21 19 c25 22 31 69 8 60 -8 -3 -19 3 -26 15 -13 25 -33 27 -51 4z"/>
<path d="M4429 2203 c-7 -43 -6 -53 7 -42 16 13 19 49 4 49 -5 0 -11 -3 -11
-7z"/>
<path d="M3203 1844 c-8 -4 -9 -13 -1 -34 8 -24 6 -35 -11 -59 -21 -29 -28
-61 -13 -61 4 0 12 15 17 32 8 27 15 33 40 33 37 0 42 19 15 63 -20 32 -25 35
-47 26z"/>
<path d="M3150 1520 c0 -14 -15 -30 -44 -48 -48 -29 -62 -60 -51 -111 8 -39
44 -70 107 -94 108 -40 131 -42 205 -20 37 11 87 26 110 32 24 7 55 22 70 36
24 20 26 24 11 30 -10 4 -28 -2 -45 -13 -15 -12 -56 -28 -91 -38 l-63 -17 -29
28 c-32 31 -52 27 -31 -6 17 -28 10 -32 -46 -24 -68 9 -87 26 -85 75 2 51 -23
55 -32 5 -4 -19 -11 -35 -16 -35 -13 0 -50 50 -50 68 0 8 25 38 55 67 54 49
70 85 40 85 -8 0 -15 -9 -15 -20z"/>
</g>
</svg>
